<svg version="1.2" xmlns="http://www.w3.org/2000/svg" viewBox="0 0 314 314" width="314" height="314">
	<title>metronome-svgrepo-com-svg</title>
	<style>
		.s0 { fill: none;stroke: #000000;stroke-linecap: round;stroke-linejoin: round;stroke-width: 14 } 
		.s1 { fill: none;stroke: #000000;stroke-linecap: round;stroke-linejoin: round;stroke-width: 11 } 
		.s2 { fill: none;stroke: #000000;stroke-linecap: round;stroke-linejoin: round;stroke-width: 9 } 
		.s3 { fill: none;stroke: #000000;stroke-linecap: round;stroke-linejoin: round;stroke-width: 13 } 
	</style>
	<g id="SVGRepo_bgCarrier">
	</g>
	<g id="SVGRepo_tracerCarrier">
	</g>
	<g id="SVGRepo_iconCarrier">
		<path id="Shape 1" class="s0" d="m118.6 6l79.9 0.4 57.9 301.2c0 0-47.8 0-98.5 0.5-52.2 0.4-100.2 0-100.2 0z"/>
		<path id="Shape 2" class="s1" d="m154.4 33.7h5l0.2 154.7h-5.2z"/>
		<path id="Shape 3" class="s2" d="m137.2 56.9v-5h38.9v5z"/>
		<path id="Shape 4" class="s2" d="m137.8 113.7v-5l39.3 0.2v4.9z"/>
		<path id="Shape 5" class="s2" d="m138.6 167.5v-5h37.2v5z"/>
		<path id="Shape 6" class="s3" d="m79.6 225c15.8-1.6 12.9-1.3 37.5-18 13.1-14.5 34.6-14.1 40.8-14 6.2 0.1 26 0.5 41.1 13 13 15.6 39.2 20.7 39.2 20.7"/>
	</g>
</svg>